<?xml version="1.0" encoding="UTF-8" standalone="no"?>
<svg width="44px" height="34px" viewBox="0 0 44 34" version="1.1" xmlns="http://www.w3.org/2000/svg" xmlns:xlink="http://www.w3.org/1999/xlink">
    <!-- Generator: Sketch 40.3 (33839) - http://www.bohemiancoding.com/sketch -->
    <title>coma2</title>
    <desc>Created with Sketch.</desc>
    <defs></defs>
    <g id="Welcome" stroke="none" stroke-width="1" fill="none" fill-rule="evenodd">
        <g id="Desktop-HD" transform="translate(-278.000000, -3946.000000)" fill="#88BE4C">
            <g id="Clients" transform="translate(86.000000, 3519.000000)">
                <g id="testimonials" transform="translate(192.000000, 417.000000)">
                    <path d="M17.3111112,12.65 C19.1111202,14.4166755 20.0111112,16.733319 20.0111112,19.6 C20.0111112,20.93334 19.8444462,22.26666 19.5111112,23.6 C19.1777762,24.93334 18.4777832,26.93332 17.4111112,29.6 L11.6111112,44 L1.71111116,44 L6.01111116,28.2 C4.34443616,27.466663 3.04444916,26.366674 2.11111116,24.9 C1.17777316,23.433326 0.711111164,21.666677 0.711111164,19.6 C0.711111164,16.733319 1.62776866,14.4166755 3.46111116,12.65 C5.29445366,10.8833245 7.61109716,10 10.4111112,10 C13.2111252,10 15.5111022,10.8833245 17.3111112,12.65 L17.3111112,12.65 Z M40.9111112,12.65 C42.7111202,14.4166755 43.6111112,16.733319 43.6111112,19.6 C43.6111112,20.93334 43.4444462,22.26666 43.1111112,23.6 C42.7777762,24.93334 42.0777832,26.93332 41.0111112,29.6 L35.2111112,44 L25.3111112,44 L29.6111112,28.2 C27.9444362,27.466663 26.6444492,26.366674 25.7111112,24.9 C24.7777732,23.433326 24.3111112,21.666677 24.3111112,19.6 C24.3111112,16.733319 25.2277687,14.4166755 27.0611112,12.65 C28.8944537,10.8833245 31.2110972,10 34.0111112,10 C36.8111252,10 39.1111022,10.8833245 40.9111112,12.65 L40.9111112,12.65 Z" id="coma2"></path>
                </g>
            </g>
        </g>
    </g>
</svg>