<?xml version="1.0" encoding="UTF-8" standalone="no"?>
<svg width="44px" height="35px" viewBox="0 0 44 35" version="1.1" xmlns="http://www.w3.org/2000/svg" xmlns:xlink="http://www.w3.org/1999/xlink">
    <!-- Generator: Sketch 40.3 (33839) - http://www.bohemiancoding.com/sketch -->
    <title>coma1</title>
    <desc>Created with Sketch.</desc>
    <defs></defs>
    <g id="Welcome" stroke="none" stroke-width="1" fill="none" fill-rule="evenodd">
        <g id="Desktop-HD" transform="translate(-960.000000, -3946.000000)" fill="#88BE4C">
            <g id="Clients" transform="translate(86.000000, 3519.000000)">
                <g id="testimonials" transform="translate(192.000000, 417.000000)">
                    <path d="M700.511111,30 C701.444449,31.466674 701.911111,33.19999 701.911111,35.2 C701.911111,38.066681 701.01112,40.3833245 699.211111,42.15 C697.411102,43.9166755 695.111125,44.8 692.311111,44.8 C689.511097,44.8 687.194454,43.900009 685.361111,42.1 C683.527769,40.299991 682.611111,38.000014 682.611111,35.2 C682.611111,33.86666 682.777776,32.53334 683.111111,31.2 C683.444446,29.86666 684.177772,27.86668 685.311111,25.2 L691.111111,10.8 L701.011111,10.8 L696.611111,26.7 C698.277786,27.433337 699.577773,28.533326 700.511111,30 L700.511111,30 Z M724.111111,30 C725.044449,31.466674 725.511111,33.19999 725.511111,35.2 C725.511111,38.066681 724.61112,40.3833245 722.811111,42.15 C721.011102,43.9166755 718.711125,44.8 715.911111,44.8 C713.111097,44.8 710.794454,43.900009 708.961111,42.1 C707.127769,40.299991 706.211111,38.000014 706.211111,35.2 C706.211111,33.86666 706.377776,32.53334 706.711111,31.2 C707.044446,29.86666 707.777772,27.86668 708.911111,25.2 L714.711111,10.8 L724.611111,10.8 L720.211111,26.7 C721.877786,27.433337 723.177773,28.533326 724.111111,30 L724.111111,30 Z" id="coma1"></path>
                </g>
            </g>
        </g>
    </g>
</svg>