<?xml version="1.0" encoding="UTF-8" standalone="no"?>
<svg width="65px" height="65px" viewBox="0 0 65 65" version="1.1" xmlns="http://www.w3.org/2000/svg" xmlns:xlink="http://www.w3.org/1999/xlink">
    <!-- Generator: Sketch 40.3 (33839) - http://www.bohemiancoding.com/sketch -->
    <title>core_icon3</title>
    <desc>Created with Sketch.</desc>
    <defs></defs>
    <g id="Welcome" stroke="none" stroke-width="1" fill="none" fill-rule="evenodd">
        <g id="Desktop-HD" transform="translate(-941.000000, -1550.000000)">
            <g id="Core" transform="translate(86.000000, 1412.000000)">
                <g id="core_icon3" transform="translate(855.000000, 138.000000)">
                    <rect id="Rectangle-3-Copy-2" fill="#88BE4C" x="0" y="0" width="65" height="65"></rect>
                    <g id="comment-alt" transform="translate(14.000000, 18.000000)" fill="#FFFFFF">
                        <path d="M19.5038579,0 C8.73662628,0 0.000947829006,6.23522818 0.000947829006,13.9304776 C0.000947829006,17.2322686 1.6058748,20.2594686 4.28752493,22.6504207 C3.69837452,24.2109021 2.79094746,24.8404525 1.7751709,25.5369764 C1.02349624,26.052672 -0.405362797,26.8563534 0.109297329,28.4302295 C0.454661361,29.4616206 1.52461268,30.0844737 2.6893698,29.9907108 C6.59672365,29.682633 10.2196601,28.7048206 13.3211645,27.1443392 C15.2646837,27.606456 17.3436397,27.8609551 19.497086,27.8609551 C30.2710895,27.8609551 38.9999961,21.6324243 38.9999961,13.9304776 C39.0067679,6.23522818 30.2778613,0 19.5038579,0 L19.5038579,0 Z M19.5038579,24.6462295 C17.3030086,24.6462295 15.075072,24.3515464 12.9148539,23.7086012 C10.7275484,24.9810968 7.58541284,26.7893799 3.79318034,27.3251675 C5.96017034,25.7178047 7.63958759,23.199603 7.93754872,21.4047146 C5.35747625,19.6634049 3.25143284,17.0581377 3.25143284,13.9304776 C3.25143284,9.18205997 9.095534,3.21472559 19.5038579,3.21472559 C29.9121817,3.21472559 35.7562829,9.18205997 35.7562829,13.9304776 C35.7562829,18.6855925 29.9121817,24.6462295 19.5038579,24.6462295 L19.5038579,24.6462295 Z M15.1698779,13.9304776 C15.1698779,15.705274 13.7139314,17.1452032 11.9193929,17.1452032 C10.1248543,17.1452032 8.66890785,15.705274 8.66890785,13.9304776 C8.66890785,12.1556811 10.1248543,10.715752 11.9193929,10.715752 C13.7139314,10.715752 15.1698779,12.1556811 15.1698779,13.9304776 L15.1698779,13.9304776 Z M22.7543429,13.9304776 C22.7543429,15.705274 21.2983965,17.1452032 19.5038579,17.1452032 C17.7093193,17.1452032 16.2533729,15.705274 16.2533729,13.9304776 C16.2533729,12.1556811 17.7093193,10.715752 19.5038579,10.715752 C21.2983965,10.715752 22.7543429,12.1556811 22.7543429,13.9304776 L22.7543429,13.9304776 Z M30.3388079,13.9304776 C30.3388079,15.705274 28.8828615,17.1452032 27.0883229,17.1452032 C25.2937843,17.1452032 23.8378379,15.705274 23.8378379,13.9304776 C23.8378379,12.1556811 25.2937843,10.715752 27.0883229,10.715752 C28.8828615,10.715752 30.3388079,12.1556811 30.3388079,13.9304776 L30.3388079,13.9304776 Z" id="Shape"></path>
                    </g>
                </g>
            </g>
        </g>
    </g>
</svg>