<?xml version="1.0" encoding="UTF-8" standalone="no"?>
<svg width="65px" height="65px" viewBox="0 0 65 65" version="1.1" xmlns="http://www.w3.org/2000/svg" xmlns:xlink="http://www.w3.org/1999/xlink">
    <!-- Generator: Sketch 40.3 (33839) - http://www.bohemiancoding.com/sketch -->
    <title>core_icon1</title>
    <desc>Created with Sketch.</desc>
    <defs></defs>
    <g id="Welcome" stroke="none" stroke-width="1" fill="none" fill-rule="evenodd">
        <g id="Desktop-HD" transform="translate(-371.000000, -1550.000000)">
            <g id="Core" transform="translate(86.000000, 1412.000000)">
                <g id="core_icon1" transform="translate(285.000000, 138.000000)">
                    <rect id="Rectangle-3" fill="#88BE4C" x="0" y="0" width="65" height="65"></rect>
                    <g id="code" transform="translate(12.000000, 16.000000)" fill="#FFFFFF">
                        <path d="M17.8672369,31.9688311 L13.9597297,30.8624979 C13.5497617,30.7499894 13.3191548,30.331208 13.4344582,29.9311779 L22.1783064,0.541467332 C22.2936099,0.141437244 22.7227951,-0.0835796803 23.1327631,0.028928782 L27.0402703,1.13526199 C27.4502383,1.24777046 27.6808452,1.66655195 27.5655418,2.06658204 L18.8216936,31.4562926 C18.6999844,31.8563227 18.2772049,32.0875901 17.8672369,31.9688311 L17.8672369,31.9688311 Z M10.5646824,24.9558036 L13.3511835,22.0555855 C13.645848,21.7493125 13.6266307,21.2617758 13.2999375,20.9805046 L7.49632841,15.99888 L13.2999375,11.0172553 C13.6266307,10.7359841 13.6522537,10.2484474 13.3511835,9.9421744 L10.5646824,7.04195626 C10.2764237,6.7419337 9.78958675,6.72318229 9.47570502,7.01070391 L0.24501992,15.4488386 C-0.0816733068,15.7426107 -0.0816733068,16.2488988 0.24501992,16.5426709 L9.47570502,24.987056 C9.78958675,25.2745776 10.2764237,25.2620767 10.5646824,24.9558036 L10.5646824,24.9558036 Z M31.524295,24.9933065 L40.7549801,16.5489213 C41.0816733,16.2551492 41.0816733,15.7488611 40.7549801,15.4550891 L31.524295,7.00445344 C31.216819,6.72318229 30.729982,6.73568323 30.4353176,7.03570579 L27.6488165,9.93592393 C27.354152,10.242197 27.3733693,10.7297336 27.7000625,11.0110048 L33.5036716,15.99888 L27.7000625,20.9805046 C27.3733693,21.2617758 27.3477463,21.7493125 27.6488165,22.0555855 L30.4353176,24.9558036 C30.7235763,25.2620767 31.2104132,25.2745776 31.524295,24.9933065 L31.524295,24.9933065 Z" id="Shape"></path>
                    </g>
                </g>
            </g>
        </g>
    </g>
</svg>