<?xml version="1.0" encoding="UTF-8" standalone="no"?>
<svg width="65px" height="65px" viewBox="0 0 65 65" version="1.1" xmlns="http://www.w3.org/2000/svg" xmlns:xlink="http://www.w3.org/1999/xlink">
    <!-- Generator: Sketch 40.3 (33839) - http://www.bohemiancoding.com/sketch -->
    <title>core_icon2</title>
    <desc>Created with Sketch.</desc>
    <defs></defs>
    <g id="Welcome" stroke="none" stroke-width="1" fill="none" fill-rule="evenodd">
        <g id="Desktop-HD" transform="translate(-655.000000, -1550.000000)">
            <g id="Core" transform="translate(86.000000, 1412.000000)">
                <g id="core_icon2" transform="translate(569.000000, 138.000000)">
                    <rect id="Rectangle-3-Copy" fill="#88BE4C" x="0" y="0" width="65" height="65"></rect>
                    <path d="M46.4101929,27.718977 L45.8592098,28.6717961 C45.6576307,29.0249389 45.2275951,29.1715265 44.8445947,29.031602 C44.0517167,28.7384269 43.3260318,28.3186534 42.6876978,27.7922708 C42.3786097,27.5390741 42.2979781,27.0926484 42.4995572,26.7461687 L43.0505403,25.7933496 C42.5869082,25.2603039 42.2240657,24.6406383 41.9821707,23.9676682 L40.8734854,23.9676682 C40.4703271,23.9676682 40.1209232,23.6811561 40.0537301,23.2813719 C39.919344,22.4818034 39.9126247,21.6422565 40.0537301,20.8093726 C40.1209232,20.4095884 40.4703271,20.1164133 40.8734854,20.1164133 L41.9821707,20.1164133 C42.2240657,19.4434431 42.5869082,18.8237775 43.0505403,18.2907319 L42.4995572,17.3379128 C42.2979781,16.9914331 42.3718904,16.5450073 42.6876978,16.2918107 C43.3260318,15.7654281 44.058436,15.3456546 44.8445947,15.0524795 C45.2275951,14.912555 45.6576307,15.0591426 45.8592098,15.4122853 L46.4101929,16.3651044 C47.1157199,16.2385061 47.8346856,16.2385061 48.5402126,16.3651044 L49.0911956,15.4122853 C49.2927748,15.0591426 49.7228103,14.912555 50.1058107,15.0524795 C50.8986887,15.3456546 51.6243737,15.7654281 52.2627077,16.2918107 C52.5717957,16.5450073 52.6524274,16.9914331 52.4508482,17.3379128 L51.8998652,18.2907319 C52.3634973,18.8237775 52.7263397,19.4434431 52.9682347,20.1164133 L54.0769201,20.1164133 C54.4800784,20.1164133 54.8294823,20.4029253 54.8966753,20.8027096 C55.0310614,21.6022781 55.0377807,22.441825 54.8966753,23.2747088 C54.8294823,23.6744931 54.4800784,23.9676682 54.0769201,23.9676682 L52.9682347,23.9676682 C52.7263397,24.6406383 52.3634973,25.2603039 51.8998652,25.7933496 L52.4508482,26.7461687 C52.6524274,27.0926484 52.578515,27.5390741 52.2627077,27.7922708 C51.6243737,28.3186534 50.8919694,28.7384269 50.1058107,29.031602 C49.7228103,29.1715265 49.2927748,29.0249389 49.0911956,28.6717961 L48.5402126,27.718977 C47.8414049,27.8455754 47.1157199,27.8455754 46.4101929,27.718977 L46.4101929,27.718977 Z M45.7046658,23.8010914 C48.2915983,25.7733604 51.2413733,22.8482723 49.252459,20.28299 C46.6655265,18.304058 43.7157515,21.2358092 45.7046658,23.8010914 L45.7046658,23.8010914 Z M37.9573069,34.0555573 L40.2217128,35.1749532 C40.9003626,35.5614113 41.196012,36.380969 40.9272398,37.1139068 C40.3292217,38.7263699 39.1533432,40.2055717 38.0648158,41.4982074 C37.5675872,42.0912207 36.7075162,42.2378082 36.0288663,41.8513501 L34.0735485,40.7319542 C32.9984597,41.6447949 31.7486689,42.3710697 30.38465,42.8441477 L30.38465,45.0829395 C30.38465,45.8558557 29.8269476,46.5221627 29.0609468,46.6554242 C27.4079978,46.9352731 25.674417,46.9485993 23.9609942,46.6554242 C23.1882741,46.5221627 22.6171332,45.8625187 22.6171332,45.0829395 L22.6171332,42.8441477 C21.2531142,42.3644066 20.0033234,41.6447949 18.9282346,40.7319542 L16.9729168,41.8446871 C16.3009863,42.2311452 15.4341959,42.0845576 14.9369673,41.4915443 C13.8484399,40.1989086 12.6994387,38.7197069 12.1014205,37.1139068 C11.8326483,36.3876321 12.1282977,35.5680744 12.8069476,35.1749532 L15.0444762,34.0555573 C14.7824233,32.6629755 14.7824233,31.2304153 15.0444762,29.8311705 L12.8069476,28.7051115 C12.1282977,28.3186534 11.825929,27.4990957 12.1014205,26.772821 C12.6994387,25.1603579 13.8484399,23.6811561 14.9369673,22.3885204 C15.4341959,21.7955071 16.294267,21.6489196 16.9729168,22.0353777 L18.9282346,23.1547736 C20.0033234,22.2419329 21.2531142,21.5156581 22.6171332,21.0425801 L22.6171332,18.7971253 C22.6171332,18.0308721 23.1681162,17.3645651 23.934117,17.2313036 C25.587066,16.9514547 27.3273661,16.9381285 29.0407889,17.2246406 C29.813509,17.357902 30.38465,18.017546 30.38465,18.7971253 L30.38465,21.035917 C31.7486689,21.5156581 32.9984597,22.2352698 34.0735485,23.1481105 L36.0288663,22.0287146 C36.7007968,21.6422565 37.5675872,21.788844 38.0648158,22.3818573 C39.1533432,23.6744931 40.2956251,25.1536948 40.8936433,26.7661579 C41.1624155,27.4924326 40.9003626,28.3119903 40.2217128,28.7051115 L37.9573069,29.8245074 C38.2193598,31.2237523 38.2193598,32.6563125 37.9573069,34.0555573 L37.9573069,34.0555573 Z M30.055404,35.4614653 C34.0332327,30.3309008 28.1269634,24.4740616 22.9530984,28.4185995 C18.9752697,33.549164 24.881539,39.4060032 30.055404,35.4614653 L30.055404,35.4614653 Z M46.4101929,47.6348956 L45.8592098,48.5877147 C45.6576307,48.9408574 45.2275951,49.087445 44.8445947,48.9475205 C44.0517167,48.6543454 43.3260318,48.2345719 42.6876978,47.7081893 C42.3786097,47.4549927 42.2979781,47.0085669 42.4995572,46.6620872 L43.0505403,45.7092681 C42.5869082,45.1762225 42.2240657,44.5565569 41.9821707,43.8835867 L40.8734854,43.8835867 C40.4703271,43.8835867 40.1209232,43.5970747 40.0537301,43.1972904 C39.919344,42.3977219 39.9126247,41.558175 40.0537301,40.7252912 C40.1209232,40.3255069 40.4703271,40.0323318 40.8734854,40.0323318 L41.9821707,40.0323318 C42.2240657,39.3593617 42.5869082,38.7396961 43.0505403,38.2066504 L42.4995572,37.2538313 C42.2979781,36.9073516 42.3718904,36.4609259 42.6876978,36.2077292 C43.3260318,35.6813466 44.058436,35.2615731 44.8445947,34.968398 C45.2275951,34.8284735 45.6576307,34.9750611 45.8592098,35.3282039 L46.4101929,36.281023 C47.1157199,36.1544246 47.8346856,36.1544246 48.5402126,36.281023 L49.0911956,35.3282039 C49.2927748,34.9750611 49.7228103,34.8284735 50.1058107,34.968398 C50.8986887,35.2615731 51.6243737,35.6813466 52.2627077,36.2077292 C52.5717957,36.4609259 52.6524274,36.9073516 52.4508482,37.2538313 L51.8998652,38.2066504 C52.3634973,38.7396961 52.7263397,39.3593617 52.9682347,40.0323318 L54.0769201,40.0323318 C54.4800784,40.0323318 54.8294823,40.3188439 54.8966753,40.7186281 C55.0310614,41.5181966 55.0377807,42.3577435 54.8966753,43.1906274 C54.8294823,43.5904116 54.4800784,43.8835867 54.0769201,43.8835867 L52.9682347,43.8835867 C52.7263397,44.5565569 52.3634973,45.1762225 51.8998652,45.7092681 L52.4508482,46.6620872 C52.6524274,47.0085669 52.578515,47.4549927 52.2627077,47.7081893 C51.6243737,48.2345719 50.8919694,48.6543454 50.1058107,48.9475205 C49.7228103,49.087445 49.2927748,48.9408574 49.0911956,48.5877147 L48.5402126,47.6348956 C47.8414049,47.7614939 47.1157199,47.7614939 46.4101929,47.6348956 L46.4101929,47.6348956 Z M45.7046658,43.7103469 C48.2915983,45.6826158 51.2413733,42.7575278 49.252459,40.1922455 C46.6655265,38.2199766 43.7157515,41.1450646 45.7046658,43.7103469 L45.7046658,43.7103469 Z" id="Shape" fill="#FFFFFF"></path>
                </g>
            </g>
        </g>
    </g>
</svg>