<?xml version="1.0" encoding="UTF-8" standalone="no"?>
<svg width="39px" height="11px" viewBox="0 0 39 11" version="1.1" xmlns="http://www.w3.org/2000/svg" xmlns:xlink="http://www.w3.org/1999/xlink">
    <!-- Generator: Sketch 40.3 (33839) - http://www.bohemiancoding.com/sketch -->
    <title>ellipsis-h</title>
    <desc>Created with Sketch.</desc>
    <defs></defs>
    <g id="Welcome" stroke="none" stroke-width="1" fill="none" fill-rule="evenodd">
        <g id="Desktop-HD" transform="translate(-682.000000, -4356.000000)" fill="#FFFFFF">
            <g id="separador" transform="translate(-1.000000, 4209.000000)">
                <g id="bt-create" transform="translate(535.000000, 130.000000)">
                    <g id="ellipsis-h" transform="translate(148.000000, 17.000000)">
                        <path d="M25.0714286,5.5 C25.0714286,8.54027778 22.5797619,11 19.5,11 C16.4202381,11 13.9285714,8.54027778 13.9285714,5.5 C13.9285714,2.45972222 16.4202381,0 19.5,0 C22.5797619,0 25.0714286,2.45972222 25.0714286,5.5 L25.0714286,5.5 Z M33.4285714,0 C30.3488095,0 27.8571429,2.45972222 27.8571429,5.5 C27.8571429,8.54027778 30.3488095,11 33.4285714,11 C36.5083333,11 39,8.54027778 39,5.5 C39,2.45972222 36.5083333,0 33.4285714,0 L33.4285714,0 Z M5.57142857,0 C2.49166667,0 0,2.45972222 0,5.5 C0,8.54027778 2.49166667,11 5.57142857,11 C8.65119048,11 11.1428571,8.54027778 11.1428571,5.5 C11.1428571,2.45972222 8.65119048,0 5.57142857,0 L5.57142857,0 Z" id="Shape"></path>
                    </g>
                </g>
            </g>
        </g>
    </g>
</svg>