<?xml version="1.0" encoding="UTF-8" standalone="no"?>
<svg width="149px" height="81px" viewBox="0 0 149 81" version="1.1" xmlns="http://www.w3.org/2000/svg" xmlns:xlink="http://www.w3.org/1999/xlink">
    <!-- Generator: Sketch 40.3 (33839) - http://www.bohemiancoding.com/sketch -->
    <title>logo</title>
    <desc>Created with Sketch.</desc>
    <defs></defs>
    <g id="Welcome" stroke="none" stroke-width="1" fill="none" fill-rule="evenodd">
        <g id="Desktop-HD" transform="translate(-85.000000, -15.000000)" fill="#FFFFFF">
            <g id="header">
                <g id="logo" transform="translate(85.000000, 15.000000)">
                    <g id="houzz">
                        <path d="M0,40.5 L23.5,53.9630859 L0,67.4894531 L0,40.5 L0,40.5 Z M23.5,81 L47,67.4894531 L47,40.5 L23.5,53.9630859 L23.5,81 L23.5,81 Z M23.5,0 L0,13.5105469 L0,40.5 L23.5,26.9894531 L23.5,0 L23.5,0 Z M23.5,26.9894531 L47,40.5 L47,13.5105469 L23.5,26.9894531 L23.5,26.9894531 Z" id="Shape"></path>
                    </g>
                    <path d="M78.675,22.5 L78.675,40 L72.775,40 L72.775,33.55 L67.325,33.55 L67.325,40 L61.425,40 L61.425,22.5 L67.325,22.5 L67.325,28.7 L72.775,28.7 L72.775,22.5 L78.675,22.5 Z M85.8763891,39.3375 C84.6680497,38.7291636 83.7222258,37.8875054 83.0388891,36.8125 C82.3555523,35.7374946 82.0138891,34.5166735 82.0138891,33.15 C82.0138891,31.7833265 82.3555523,30.5625054 83.0388891,29.4875 C83.7222258,28.4124946 84.6680497,27.575003 85.8763891,26.975 C87.0847284,26.374997 88.4472148,26.075 89.9638891,26.075 C91.4972301,26.075 92.8680497,26.374997 94.0763891,26.975 C95.2847284,27.575003 96.2263857,28.4124946 96.9013891,29.4875 C97.5763924,30.5625054 97.9138891,31.7833265 97.9138891,33.15 C97.9138891,34.5166735 97.5763924,35.7374946 96.9013891,36.8125 C96.2263857,37.8875054 95.2847284,38.7291636 94.0763891,39.3375 C92.8680497,39.9458364 91.4972301,40.25 89.9638891,40.25 C88.4472148,40.25 87.0847284,39.9458364 85.8763891,39.3375 L85.8763891,39.3375 Z M91.5638891,35.1375 C91.9805578,34.6624976 92.1888891,34.0000042 92.1888891,33.15 C92.1888891,32.2999958 91.9805578,31.641669 91.5638891,31.175 C91.1472203,30.708331 90.6138923,30.475 89.9638891,30.475 C89.3138858,30.475 88.7805578,30.708331 88.3638891,31.175 C87.9472203,31.641669 87.7388891,32.2999958 87.7388891,33.15 C87.7388891,34.0000042 87.9472203,34.6624976 88.3638891,35.1375 C88.7805578,35.6125024 89.3138858,35.85 89.9638891,35.85 C90.6138923,35.85 91.1472203,35.6125024 91.5638891,35.1375 L91.5638891,35.1375 Z M116.027778,26.325 L116.027778,40 L110.652778,40 L110.652778,38.7 C110.152776,39.2166693 109.569448,39.6041654 108.902778,39.8625 C108.236108,40.1208346 107.527782,40.25 106.777778,40.25 C105.044436,40.25 103.652783,39.7208386 102.602778,38.6625 C101.552773,37.6041614 101.027778,36.008344 101.027778,33.875 L101.027778,26.325 L106.677778,26.325 L106.677778,32.9 C106.677778,33.833338 106.827777,34.499998 107.127778,34.9 C107.42778,35.300002 107.869442,35.5 108.452778,35.5 C109.002781,35.5 109.46111,35.2791689 109.827778,34.8375 C110.194447,34.3958311 110.377778,33.7000047 110.377778,32.75 L110.377778,26.325 L116.027778,26.325 Z M132.466667,35.875 L132.466667,40 L119.416667,40 L119.416667,36.75 L125.066667,30.45 L119.616667,30.45 L119.616667,26.325 L132.191667,26.325 L132.191667,29.575 L126.541667,35.875 L132.466667,35.875 Z M148.105556,35.875 L148.105556,40 L135.055556,40 L135.055556,36.75 L140.705556,30.45 L135.255556,30.45 L135.255556,26.325 L147.830556,26.325 L147.830556,29.575 L142.180556,35.875 L148.105556,35.875 Z M70.548,51.552 C71.4600046,52.3200038 71.916,53.3759933 71.916,54.72 C71.916,56.0640067 71.4600046,57.1169962 70.548,57.879 C69.6359954,58.6410038 68.376008,59.022 66.768,59.022 L63.384,59.022 L63.384,63 L62.052,63 L62.052,50.4 L66.768,50.4 C68.376008,50.4 69.6359954,50.7839962 70.548,51.552 L70.548,51.552 Z M69.594,57.033 C70.2540033,56.4869973 70.584,55.716005 70.584,54.72 C70.584,53.6999949 70.2540033,52.9170027 69.594,52.371 C68.9339967,51.8249973 67.9800062,51.552 66.732,51.552 L63.384,51.552 L63.384,57.852 L66.732,57.852 C67.9800062,57.852 68.9339967,57.5790027 69.594,57.033 L69.594,57.033 Z M77.716,49.644 L78.994,49.644 L78.994,63 L77.716,63 L77.716,49.644 Z M91.724,54.387 C92.3840033,55.0050031 92.714,55.9199939 92.714,57.132 L92.714,63 L91.49,63 L91.49,61.524 C91.2019986,62.0160025 90.7790028,62.3999986 90.221,62.676 C89.6629972,62.9520014 89.0000038,63.09 88.232,63.09 C87.1759947,63.09 86.3360031,62.8380025 85.712,62.334 C85.0879969,61.8299975 84.776,61.1640041 84.776,60.336 C84.776,59.531996 85.0669971,58.8840025 85.649,58.392 C86.2310029,57.8999975 87.1579936,57.654 88.43,57.654 L91.436,57.654 L91.436,57.078 C91.436,56.2619959 91.2080023,55.6410021 90.752,55.215 C90.2959977,54.7889979 89.6300044,54.576 88.754,54.576 C88.153997,54.576 87.5780028,54.674999 87.026,54.873 C86.4739972,55.071001 86.000002,55.3439983 85.604,55.692 L85.028,54.738 C85.5080024,54.329998 86.0839966,54.0150011 86.756,53.793 C87.4280034,53.5709989 88.1359963,53.46 88.88,53.46 C90.1160062,53.46 91.0639967,53.7689969 91.724,54.387 L91.724,54.387 Z M90.284,61.587 C90.8000026,61.2569984 91.1839987,60.7800031 91.436,60.156 L91.436,58.608 L88.466,58.608 C86.8459919,58.608 86.036,59.1719944 86.036,60.3 C86.036,60.8520028 86.2459979,61.2869984 86.666,61.605 C87.0860021,61.9230016 87.6739962,62.082 88.43,62.082 C89.1500036,62.082 89.7679974,61.9170017 90.284,61.587 L90.284,61.587 Z M106.857,54.495 C107.559004,55.1850034 107.91,56.1899934 107.91,57.51 L107.91,63 L106.632,63 L106.632,57.636 C106.632,56.6519951 106.386002,55.9020026 105.894,55.386 C105.401998,54.8699974 104.700005,54.612 103.788,54.612 C102.767995,54.612 101.961003,54.914997 101.367,55.521 C100.772997,56.127003 100.476,56.9639947 100.476,58.032 L100.476,63 L99.198,63 L99.198,53.532 L100.422,53.532 L100.422,55.278 C100.770002,54.7019971 101.252997,54.2550016 101.871,53.937 C102.489003,53.6189984 103.205996,53.46 104.022,53.46 C105.210006,53.46 106.154996,53.8049965 106.857,54.495 L106.857,54.495 Z M122.053,54.495 C122.755004,55.1850034 123.106,56.1899934 123.106,57.51 L123.106,63 L121.828,63 L121.828,57.636 C121.828,56.6519951 121.582002,55.9020026 121.09,55.386 C120.597998,54.8699974 119.896005,54.612 118.984,54.612 C117.963995,54.612 117.157003,54.914997 116.563,55.521 C115.968997,56.127003 115.672,56.9639947 115.672,58.032 L115.672,63 L114.394,63 L114.394,53.532 L115.618,53.532 L115.618,55.278 C115.966002,54.7019971 116.448997,54.2550016 117.067,53.937 C117.685003,53.6189984 118.401996,53.46 119.218,53.46 C120.406006,53.46 121.350996,53.8049965 122.053,54.495 L122.053,54.495 Z M137.87,58.662 L129.95,58.662 C130.022,59.6460049 130.399997,60.440997 131.084,61.047 C131.768003,61.653003 132.631995,61.956 133.676,61.956 C134.264003,61.956 134.803998,61.8510011 135.296,61.641 C135.788002,61.430999 136.213998,61.122002 136.574,60.714 L137.294,61.542 C136.873998,62.0460025 136.349003,62.4299987 135.719,62.694 C135.088997,62.9580013 134.396004,63.09 133.64,63.09 C132.667995,63.09 131.807004,62.8830021 131.057,62.469 C130.306996,62.0549979 129.722002,61.4820037 129.302,60.75 C128.881998,60.0179963 128.672,59.1900046 128.672,58.266 C128.672,57.3419954 128.872998,56.5140037 129.275,55.782 C129.677002,55.0499963 130.228996,54.480002 130.931,54.072 C131.633004,53.663998 132.421996,53.46 133.298,53.46 C134.174004,53.46 134.959997,53.663998 135.656,54.072 C136.352003,54.480002 136.897998,55.0469964 137.294,55.773 C137.690002,56.4990036 137.888,57.3299953 137.888,58.266 L137.87,58.662 Z M131.003,55.431 C130.384997,56.0130029 130.034,56.7719953 129.95,57.708 L136.664,57.708 C136.58,56.7719953 136.229003,56.0130029 135.611,55.431 C134.992997,54.8489971 134.222005,54.558 133.298,54.558 C132.385995,54.558 131.621003,54.8489971 131.003,55.431 L131.003,55.431 Z M146.073,53.946 C146.667003,53.6219984 147.401996,53.46 148.278,53.46 L148.278,54.702 L147.972,54.684 C146.975995,54.684 146.196003,54.9899969 145.632,55.602 C145.067997,56.2140031 144.786,57.0719945 144.786,58.176 L144.786,63 L143.508,63 L143.508,53.532 L144.732,53.532 L144.732,55.386 C145.032001,54.7499968 145.478997,54.2700016 146.073,53.946 L146.073,53.946 Z" id="Houzz-Planner"></path>
                </g>
            </g>
        </g>
    </g>
</svg>