<?xml version="1.0" encoding="UTF-8" standalone="no"?>
<svg width="51px" height="51px" viewBox="0 0 51 51" version="1.1" xmlns="http://www.w3.org/2000/svg" xmlns:xlink="http://www.w3.org/1999/xlink">
    <!-- Generator: Sketch 40.3 (33839) - http://www.bohemiancoding.com/sketch -->
    <title>services_icon_2</title>
    <desc>Created with Sketch.</desc>
    <defs></defs>
    <g id="Welcome" stroke="none" stroke-width="1" fill="none" fill-rule="evenodd">
        <g id="Desktop-HD" transform="translate(-472.000000, -2122.000000)" fill="#FFFFFF">
            <g id="services" transform="translate(0.000000, 1900.000000)">
                <g id="services_icon_2" transform="translate(472.000000, 222.000000)">
                    <path d="M8.97340862,2.61668758 C5.42786263,2.61619205 2.62532984,5.38324364 2.61492072,8.89607113 C2.60352025,12.3806533 5.44669819,15.2438381 8.93375482,15.2611817 C12.3841317,15.2775343 15.3066172,12.3761935 15.3076086,8.93422711 C15.3090956,5.43973431 12.4793008,2.61767865 8.97340862,2.61668758 L8.97340862,2.61668758 Z M2.61789475,15.4068682 C2.61789475,24.5672757 2.56436211,33.5453274 2.6441654,42.5223881 C2.67588844,46.0753537 6.36071843,48.9216904 9.84083565,48.3176367 C13.1097963,47.7492613 15.2942254,45.2270026 15.3026518,41.897522 C15.3234701,33.307472 15.3095913,24.7169264 15.3081042,16.1268764 C15.3081042,15.9276725 15.2877817,15.7289641 15.2704331,15.4063727 C11.0537465,18.7284203 6.90001021,18.701166 2.61789475,15.4068682 L2.61789475,15.4068682 Z M17.9024546,40.7003163 C18.249921,40.7350036 18.4556252,40.7731595 18.6608336,40.7731595 C27.4709181,40.7766283 36.2814983,40.765231 45.0920785,40.7934764 C45.9332348,40.795954 45.975367,40.3980417 45.9733843,39.755832 C45.943644,32.9650593 45.9307565,26.1742865 45.9153906,19.3835138 C45.9034945,14.1482165 45.8945724,8.91341476 45.8851546,3.67861301 C45.8841633,3.34165114 45.8851546,3.0051848 45.8851546,2.69894592 L15.4206219,2.69894592 C17.4092603,4.81734591 17.9336819,7.25040882 17.9212901,9.93321995 C17.8742012,19.7313774 17.9024546,29.5300303 17.9024546,39.3281878 L17.9024546,40.7003163 L17.9024546,40.7003163 Z M50.9920692,0.000773304515 L50.9920692,2.59934396 L48.5345246,2.59934396 L48.5345246,5.09781712 L50.9509284,5.09781712 L50.9509284,7.65872733 L48.5528645,7.65872733 L48.5528645,10.1755352 L50.9692683,10.1755352 L50.9692683,12.7869897 L48.5558385,12.7869897 L48.5558385,15.2408649 L50.9514241,15.2408649 L50.9514241,17.8647077 L48.5434467,17.8647077 L48.5434467,20.3631809 L50.942502,20.3631809 L50.942502,22.9250822 L48.5617866,22.9250822 L48.5617866,25.4394123 L50.9608419,25.4394123 L50.9608419,28.0523534 L48.5647606,28.0523534 L48.5647606,30.5052376 C49.35288,30.541907 50.1464518,30.5795674 51,30.6197056 L51,33.153857 L48.5949966,33.153857 L48.5949966,35.641924 L50.9509284,35.641924 L50.9509284,38.2419813 L48.4755395,38.2419813 C48.5379943,39.1161 48.3184113,40.1378873 48.7218888,40.5501701 C49.1313144,40.9683992 50.1553739,40.7850523 50.9672856,40.8712749 L50.9672856,43.3737123 L17.8206686,43.3737123 C17.3710935,45.7299677 16.3331552,47.6466861 14.477357,49.0564751 C11.5538801,51.2764592 8.32457321,51.5717964 5.09179662,50.0594322 C1.90710027,48.5698626 0.0671636351,45.8905202 0.0468410592,42.3152556 C-0.0175963767,31.0319883 -0.0116483057,19.7477299 0.0408929882,8.46446262 C0.0622069093,4.01161062 3.80503059,0.253494707 8.24030887,0.0210901231 C8.80487995,-0.00864180655 9.37192938,0.00176436884 9.9374918,0.00176436884 C23.1347743,0.000773304515 36.3325526,0.000773304515 49.5298351,0.000773304515 L50.9920692,0.000773304515 L50.9920692,0.000773304515 Z" id="Fill-1"></path>
                    <path d="M11.4669712,8.95883935 C11.4567989,7.68589794 10.3005446,6.54977478 9.01205007,6.54542367 C7.65186486,6.54155602 6.50626727,7.68734831 6.53436227,9.02265563 C6.56100407,10.2762588 7.77247957,11.4462239 9.02512877,11.4278525 C10.2637305,11.4099646 11.4766592,10.1834351 11.4669712,8.95883935 M9.01108127,4.00002432 C11.9131004,4.00727617 14.0182873,6.13110131 13.9998802,9.03280822 C13.9819576,11.7938292 11.7275765,14.0215976 8.97329835,13.999842 C6.18317484,13.977603 3.99951568,11.7807759 4.00000008,8.99654897 C4.00000008,6.06728503 6.08145159,3.99180556 9.01108127,4.00002432" id="Fill-3"></path>
                    <path d="M8.00000036,9.25912548 C8.05320093,8.50595508 8.57884569,7.98325367 9.56826061,8.00041017 C10.5183534,8.01699479 10.9798105,8.560284 10.9994716,9.48273188 C11.0197109,10.4400647 10.4570571,10.9124403 9.57057368,10.9936478 C8.68640336,11.0748552 7.9994221,10.3708668 8.00000036,9.25912548" id="Fill-5"></path>
                </g>
            </g>
        </g>
    </g>
</svg>