<?xml version="1.0" encoding="UTF-8" standalone="no"?>
<svg width="44px" height="54px" viewBox="0 0 44 54" version="1.1" xmlns="http://www.w3.org/2000/svg" xmlns:xlink="http://www.w3.org/1999/xlink">
    <!-- Generator: Sketch 40.3 (33839) - http://www.bohemiancoding.com/sketch -->
    <title>services_icon_4</title>
    <desc>Created with Sketch.</desc>
    <defs></defs>
    <g id="Welcome" stroke="none" stroke-width="1" fill="none" fill-rule="evenodd">
        <g id="Desktop-HD" transform="translate(-1045.000000, -2121.000000)" fill="#FFFFFF">
            <g id="services" transform="translate(0.000000, 1900.000000)">
                <g id="services_icon_4" transform="translate(1045.000000, 221.000000)">
                    <path d="M2.52216839,51.3425868 L41.4617796,51.3425868 L41.4617796,47.6470588 L2.52216839,47.6470588 L2.52216839,51.3425868 Z M5.32775466,2.59478567 L5.32775466,44.9455558 L7.81129795,44.9455558 L7.81129795,5.13295602 L36.2428775,5.13295602 L36.2428775,44.9290221 L38.6627145,44.9290221 L38.6627145,2.59478567 L5.32775466,2.59478567 Z M10.5015106,44.9350343 L33.535108,44.9350343 L33.535108,7.79387641 L10.5015106,7.79387641 L10.5015106,44.9350343 Z M41.3238329,44.9966599 L44,44.9966599 L44,54 L0,54 L0,45.0437558 L2.59038933,45.0437558 L2.59038933,0 L41.3238329,0 L41.3238329,44.9966599 Z" id="Fill-19"></path>
                    <path d="M15.5792083,23.2866971 L28.413228,23.2866971 L28.413228,12.6001415 L15.5792083,12.6001415 L15.5792083,23.2866971 Z M13,26 L31,26 L31,10 L13,10 L13,26 Z" id="Fill-20"></path>
                    <polygon id="Fill-21" points="23 30 31 30 31 28 23 28"></polygon>
                </g>
            </g>
        </g>
    </g>
</svg>