<?xml version="1.0" encoding="UTF-8" standalone="no"?>
<svg width="48px" height="51px" viewBox="0 0 48 51" version="1.1" xmlns="http://www.w3.org/2000/svg" xmlns:xlink="http://www.w3.org/1999/xlink">
    <!-- Generator: Sketch 40.3 (33839) - http://www.bohemiancoding.com/sketch -->
    <title>services_icon_3</title>
    <desc>Created with Sketch.</desc>
    <defs></defs>
    <g id="Welcome" stroke="none" stroke-width="1" fill="none" fill-rule="evenodd">
        <g id="Desktop-HD" transform="translate(-759.000000, -2123.000000)" fill="#FFFFFF">
            <g id="services" transform="translate(0.000000, 1900.000000)">
                <g id="services_icon_3" transform="translate(759.000000, 223.000000)">
                    <path d="M39.3333224,26.8144842 L39.3333224,24.1561946 L45.4731376,24.1561946 L45.4731376,20.4095418 L43.110389,20.4095418 L43.110389,17.7457855 L45.4638296,17.7457855 L45.4638296,12.726394 L39.3088279,12.726394 L39.3088279,10.1004073 L45.4599105,10.1004073 L45.4599105,2.57231393 L35.5611548,2.57231393 L35.5611548,48.4550194 C38.7057709,48.4550194 41.7764133,48.4575042 44.8475456,48.4505467 C45.0484013,48.4500497 45.2487671,48.3874315 45.4780365,48.3491649 L45.4780365,40.8235564 L39.3191156,40.8235564 L39.3191156,38.2532303 L45.466769,38.2532303 L45.466769,33.1339479 L43.1079395,33.1339479 L43.1079395,30.5631249 L45.4795062,30.5631249 L45.4795062,26.8144842 L39.3333224,26.8144842 Z M33,51 L48,51 L48,0 L33,0 L33,51 Z" id="Fill-7"></path>
                    <path d="M7.45098824,30.5046924 L9.46641145,30.5046924 C9.5397529,30.0567177 9.60087078,29.6879153 9.65612134,29.352686 L12.0705221,29.352686 C12.1184385,29.786129 12.1555982,30.1318813 12.1971583,30.5147142 L14.4751439,30.5147142 C13.4732996,26.6768643 12.4973693,22.936727 11.5321958,19.2356747 C10.7117494,19.0347376 10.311794,19.2492042 10.165111,20.0865259 C9.98713578,21.1002314 9.65856606,22.0863769 9.39649259,23.0845486 C8.7569551,25.5213503 8.11839549,27.9581519 7.45098824,30.5046924 M8.57457934,15.8934031 C8.946665,14.4898494 9.28061309,13.1850105 9.63949728,11.8871869 C9.83214084,11.1896693 10.1880914,10.6384701 11.0041373,10.6620213 C11.7722668,10.6840693 12.0431413,11.1981879 12.2206276,11.8866858 C12.5623988,13.2120694 12.9687104,14.5199148 13.358887,15.8713551 C15.1635757,14.6747517 15.9390394,12.6117633 15.3992463,10.6820649 C14.8545637,8.73482841 13.0107595,7.26613302 11.0745451,7.23506542 C9.05814401,7.20399783 7.14246519,8.61306349 6.55133305,10.5628055 C5.95042206,12.5451183 6.66036735,14.5279323 8.57457934,15.8934031 M9.56371111,1 L12.1135491,1 L12.1135491,4.69503917 C15.3454625,5.3534717 17.4660085,7.20950982 17.9720645,10.4921518 C18.508435,13.9782363 17.229849,16.7272172 14.0419404,18.4995732 C14.7098366,21.0882052 15.3752881,23.6638089 16.0382948,26.2399136 C16.3756655,27.5507656 16.4133141,29.0730777 17.1208147,30.1198551 C17.9344159,31.3244759 19.5836208,30.2165655 20.8602511,30.7291808 L20.8602511,33.113368 L17.8200033,33.113368 C18.217025,34.6582291 18.5675972,36.0537653 18.9333265,37.4452928 C19.8936107,41.0977393 20.8626958,44.7476804 21.8200462,48.400628 C21.9090339,48.7413693 21.9745522,49.0956401 21.9950879,49.4474054 C22.0395817,50.2070581 21.7882649,50.8364274 20.9766195,50.93414 C20.1859986,51.0288461 19.6701637,50.6324837 19.4608961,49.795162 C18.7881105,47.0992967 18.0835435,44.4119499 17.3951118,41.7200933 C16.7506848,39.2011129 16.0730098,36.690651 15.4906786,34.1566378 C15.2990129,33.3208193 14.9386619,33.0457208 14.1416848,33.1324094 C13.5295281,33.1985533 12.9041699,33.1459388 12.1707554,33.1459388 L12.1707554,35.7175338 L9.67763484,35.7175338 L9.67763484,33.1554596 C8.78189119,33.1554596 7.98491404,33.0777906 7.21776241,33.1995555 C6.96497886,33.2401438 6.68677027,33.7692951 6.59582687,34.1225637 C5.2908379,39.1945987 4.0161634,44.2741501 2.7346437,49.3521983 C2.6994398,49.4904992 2.67939313,49.6328088 2.63685509,49.7686042 C2.39189463,50.5583224 1.95331272,51.1355783 1.05659119,50.9722229 C0.280149646,50.8304144 -0.16821112,49.9429836 0.0591473923,49.0084504 C0.530488481,47.0707346 1.04094501,45.1420384 1.5372222,43.2103356 C2.32735415,40.1411581 3.1209087,37.0724817 3.90664016,34.0018009 C3.9672691,33.7657874 3.97998161,33.5162445 4.03229852,33.1534552 L0.853679829,33.1534552 L0.853679829,30.6334726 L4.69383845,30.6334726 C4.87034689,30.0436894 5.0488111,29.5180458 5.18327043,28.9813781 C5.99100433,25.7683878 6.77429108,22.5493843 7.60256058,19.342407 C7.75511081,18.7486151 7.74826561,18.4113814 7.15273299,18.0450844 C4.37651442,16.3368679 3.3947168,13.654532 3.82058618,10.5242215 C4.22347525,7.56127515 6.07070205,5.68068361 8.88799183,4.90700033 C9.48450234,4.74314383 9.58277989,4.48157475 9.57055631,3.95843657 C9.54806493,3.00135428 9.56371111,2.04326981 9.56371111,1" id="Fill-9"></path>
                </g>
            </g>
        </g>
    </g>
</svg>