<?xml version="1.0" encoding="UTF-8" standalone="no"?>
<svg width="52px" height="54px" viewBox="0 0 52 54" version="1.1" xmlns="http://www.w3.org/2000/svg" xmlns:xlink="http://www.w3.org/1999/xlink">
    <!-- Generator: Sketch 40.3 (33839) - http://www.bohemiancoding.com/sketch -->
    <title>services_icon_1</title>
    <desc>Created with Sketch.</desc>
    <defs>
        <polygon id="path-1" points="23.902778 0.0464299065 0.236638166 0.0464299065 0.236638166 53.5925776 23.902778 53.5925776 23.902778 0.0464299065"></polygon>
    </defs>
    <g id="Welcome" stroke="none" stroke-width="1" fill="none" fill-rule="evenodd">
        <g id="Desktop-HD" transform="translate(-187.000000, -2119.000000)">
            <g id="services" transform="translate(0.000000, 1900.000000)">
                <g id="services_icon_1" transform="translate(187.000000, 219.000000)">
                    <path d="M8.23371554,4.57607362 L8.23371554,9.7878177 L5.65650159,9.7878177 L5.65650159,4.60885188 L2.57331056,4.60885188 L2.57331056,50.3911481 L5.67162723,50.3911481 L5.67162723,45.1972831 L8.28348378,45.1972831 L8.28348378,50.449255 C9.21932179,50.449255 10.0502562,50.3901548 10.8694804,50.4651475 C11.7716516,50.5475898 12.063918,50.2699679 12.0551354,49.3030091 C12.0068309,43.9849839 12.032203,38.6659655 12.032203,33.3474438 L12.032203,32.0944201 L14.44889,32.0944201 L14.44889,44.2864446 C14.44889,46.0594508 14.4259576,47.8329535 14.4723103,49.6049664 C14.4801171,49.8885481 14.7728714,50.3822086 14.9748719,50.405054 C15.7853135,50.4974292 16.6118566,50.4432954 17.4203464,50.4432954 L17.4203464,4.60636868 L14.4215662,4.60636868 L14.4215662,21.7196027 L12.0068309,21.7196027 L12.0068309,4.57607362 L8.23371554,4.57607362 Z M0,53 L20,53 L20,2 L0,2 L0,53 Z" id="Fill-11" fill="#FFFFFF"></path>
                    <g id="Group-15" transform="translate(28.000000, 0.000000)">
                        <mask id="mask-2" fill="white">
                            <use xlink:href="#path-1"></use>
                        </mask>
                        <g id="Clip-14"></g>
                        <path d="M21.1361362,50.956671 L21.1361362,35.4405028 C19.7472,35.5162037 18.3260936,35.2739607 17.1700085,35.7135308 C12.5635404,37.4652505 8.03724255,39.423886 3.49051915,41.3280168 C3.23877447,41.4339981 2.89511489,41.7357925 2.89205106,41.9497738 C2.85273191,44.9298673 2.86600851,47.9099607 2.86600851,50.956671 L21.1361362,50.956671 Z M21.1351149,32.6920542 C21.1657532,32.5916243 21.2050723,32.5234935 21.2050723,32.4548579 C21.2117106,23.9879607 21.2234553,15.5210636 21.1907745,7.05467103 C21.1897532,6.75439065 20.8174979,6.29463364 20.5146894,6.18108224 C17.695966,5.1298486 14.856817,4.13059626 12.0156255,3.13992336 C11.7403915,3.04403551 11.3247319,2.98347477 11.1169021,3.11923178 C10.3397106,3.62693271 9.62226383,4.22345607 8.84609362,4.81442804 C9.94549787,6.25476449 10.9632,7.58710093 12.0033702,8.94921308 C10.5557106,10.0544467 9.23724255,11.0612692 7.85851915,12.1140168 C8.93239149,13.4932879 9.96388085,14.8185589 11.022434,16.1781477 C9.59979574,17.2682411 8.25937021,18.2952505 6.87911489,19.3525402 C8.00098723,20.7858112 9.04371064,22.1186523 10.1017532,23.470671 C8.69085957,24.5526897 7.34634894,25.5837364 5.95894468,26.6470822 C7.03128511,28.0268579 8.04337021,29.3299234 9.11213617,30.705157 C7.74771064,31.7619421 6.43945532,32.7748206 5.08422128,33.8240355 C5.89051915,34.8394374 6.64728511,35.7932692 7.43009362,36.7788953 C8.41664681,36.3680916 9.34345532,35.9658673 10.2825191,35.594428 C13.6930723,34.242914 16.9351149,32.2615682 20.8588596,32.8056056 C20.9196255,32.814185 20.9900936,32.754129 21.1351149,32.6920542 L21.1351149,32.6920542 Z M7.25341277,15.666914 C6.16779574,14.2548393 5.15775319,12.942185 4.08796596,11.5508019 C5.4498383,10.5101664 6.76371064,9.50586729 8.17205106,8.42889533 C7.12217872,7.06476449 6.09681702,5.73141869 4.9979234,4.30470841 C6.86941277,2.88859626 8.69239149,1.4820729 10.5587745,0.13257757 C10.7752851,-0.023871028 11.2573277,0.0599046729 11.5683064,0.168409346 C15.4343489,1.5174 19.2881362,2.90323178 23.1567319,4.24616636 C23.6852426,4.42986729 23.9037957,4.65596075 23.9027745,5.22876449 C23.8859234,21.255157 23.8849021,37.2815495 23.8787745,53.3084467 C23.8787745,53.3775869 23.8486468,53.4462224 23.8149447,53.5925776 L0.329157447,53.5925776 C0.303625532,53.3579047 0.25613617,53.118185 0.25613617,52.8789701 C0.251540426,48.7729514 0.267880851,44.6669327 0.236731915,40.5614187 C0.231625532,39.9219981 0.434348936,39.6025402 1.03485957,39.3809888 C2.25222128,38.9318299 3.44149787,38.4105028 4.78345532,37.8614187 C3.60439149,36.3156056 2.49834894,34.8656804 1.32132766,33.3223907 C2.64796596,32.2923533 3.94907234,31.2825028 5.2752,30.2529701 C4.21971064,28.8782411 3.21017872,27.5630636 2.11996596,26.144428 C3.48337021,25.0977364 4.81766809,24.0722411 6.25307234,22.9695308 C5.21290213,21.6043907 4.19622128,20.2700355 3.10651915,18.8402972 C4.49851915,17.7749327 5.8404766,16.748428 7.25341277,15.666914 L7.25341277,15.666914 Z" id="Fill-13" fill="#FFFFFF" mask="url(#mask-2)"></path>
                    </g>
                    <polygon id="Fill-16" fill="#FFFFFF" points="7 40 10 40 10 16 7 16"></polygon>
                    <path d="M43.4011248,41.8851862 C41.0982852,42.7379701 38.9304255,43.5405605 36.7625659,44.3426438 C35.4158342,44.8405236 35.3779989,44.9170815 35.7635098,46.3970317 L43.4011248,46.3970317 L43.4011248,41.8851862 Z M46,49 L33,49 L33,42.8464694 C37.2436876,41.264611 41.5732715,39.6503042 46,38 L46,49 Z" id="Fill-18" fill="#FFFFFF"></path>
                </g>
            </g>
        </g>
    </g>
</svg>