<?xml version="1.0" encoding="UTF-8" standalone="no"?>
<svg width="43px" height="43px" viewBox="0 0 43 43" version="1.1" xmlns="http://www.w3.org/2000/svg" xmlns:xlink="http://www.w3.org/1999/xlink">
    <!-- Generator: Sketch 40.3 (33839) - http://www.bohemiancoding.com/sketch -->
    <title>User</title>
    <desc>Created with Sketch.</desc>
    <defs></defs>
    <g id="Welcome" stroke="none" stroke-width="1" fill="none" fill-rule="evenodd">
        <g id="Desktop-HD" transform="translate(-1151.000000, -32.000000)">
            <g id="header">
                <g id="User" transform="translate(1151.000000, 32.000000)">
                    <circle id="Oval-2" fill="#FFFFFF" cx="21.5" cy="21.5" r="21.5"></circle>
                    <g id="23144" transform="translate(10.000000, 7.000000)" fill="#C4C4C4">
                        <g id="Capa_1">
                            <path d="M14.50768,16.2311724 C15.4176,15.3229655 16.06968,13.962 16.36888,12.064 C16.76928,12.1384138 17.29552,11.7170345 17.47856,11.0069655 C17.66688,10.278069 17.88512,9.05427586 17.47592,8.94310345 C17.35536,8.90993103 17.2304,8.93503448 17.10456,8.99958621 L17.10456,6.97337931 C17.17144,4.77055172 16.87576,2.64393103 14.51824,1.72317241 C14.08792,0.820344828 14.05976,0 14.05976,0 C12.99848,0.973655172 8.96896,1.36813793 8.96896,1.36813793 L9.01472,1.38068966 C3.90544,1.91593103 4.64288,3.78703448 4.64288,6.97248276 L4.64288,8.99868966 C4.51792,8.93413793 4.39296,8.90813793 4.27152,8.9422069 C3.86408,9.05337931 3.98728,10.2305517 4.1756,10.9603448 C4.35952,11.6757931 4.98608,12.1446897 5.38736,12.0622069 C5.69272,14.0552414 6.30344,15.3821379 7.14296,16.2491034 C3.23312,17.706 0.45144,21.3845517 0.45144,25.7014483 L21.25552,25.7014483 C21.25376,21.3621379 18.44656,17.6710345 14.50768,16.2311724 L14.50768,16.2311724 Z" id="Shape"></path>
                        </g>
                    </g>
                </g>
            </g>
        </g>
    </g>
</svg>